<svg width="21" height="21" viewBox="0 0 21 21" fill="none" xmlns="http://www.w3.org/2000/svg">
<g opacity="0.3">
<path d="M13.328 10.5L20.6989 3.12897C21.0877 2.73779 21.0877 2.10615 20.6989 1.71497L19.285 0.299974C18.8938 -0.0887607 18.2621 -0.0887607 17.871 0.299974L10.5 7.67197L3.12895 0.300974C2.73777 -0.0877607 2.10613 -0.0877607 1.71495 0.300974L0.30095 1.71497C-0.0877842 2.10615 -0.0877842 2.73779 0.30095 3.12897L7.67195 10.5L0.30095 17.871C-0.0877842 18.2622 -0.0877842 18.8938 0.30095 19.285L1.71595 20.699C2.10713 21.0877 2.73877 21.0877 3.12995 20.699L10.5009 13.328L17.872 20.699C18.2631 21.0877 18.8948 21.0877 19.2859 20.699L20.6999 19.285C21.0887 18.8938 21.0887 18.2622 20.6999 17.871L13.328 10.5Z" fill="#FB565A"/>
</g>
</svg>
