<svg class="cocial-icon" width="27" height="16" viewBox="0 0 27 16" fill="none" xmlns="http://www.w3.org/2000/svg">
<path d="M16.138 12.51C17.094 12.201 18.318 14.55 19.621 15.449C20.599 16.13 21.348 15.983 21.348 15.983L24.821 15.933C24.821 15.933 26.636 15.821 25.778 14.379C25.707 14.259 25.275 13.31 23.193 11.357C21.016 9.31404 21.311 9.64504 23.932 6.11304C25.529 3.96004 26.168 2.64504 25.968 2.08504C25.776 1.54604 24.603 1.68604 24.603 1.68604L20.69 1.71304C20.309 1.71404 19.986 1.83204 19.839 2.22804C19.836 2.23204 19.218 3.89404 18.394 5.30704C16.653 8.29604 15.958 8.45504 15.67 8.26804C15.009 7.83504 15.176 6.53104 15.176 5.60404C15.176 2.70704 15.608 1.49904 14.33 1.18704C13.903 1.08304 13.591 1.01504 12.502 1.00504C11.11 0.984037 9.92797 1.00504 9.25797 1.33404C8.81297 1.55704 8.47197 2.04604 8.67897 2.07404C8.93897 2.10904 9.52197 2.23404 9.83397 2.66004C10.235 3.21204 10.223 4.44904 10.223 4.44904C10.223 4.44904 10.452 7.86004 9.68297 8.28304C9.15497 8.57304 8.43297 7.98104 6.87997 5.26704C6.08697 3.87904 5.48797 2.34504 5.48797 2.34504C5.48797 2.34504 5.37197 2.06004 5.16197 1.90404C4.91197 1.71904 4.56197 1.66004 4.56197 1.66004L0.84797 1.68404C0.84797 1.68404 0.28997 1.70004 0.0849697 1.94604C-0.0970303 2.16404 0.0699697 2.61404 0.0699697 2.61404C0.0699697 2.61404 2.97897 9.49504 6.27297 12.961C9.29297 16.143 12.725 15.932 12.725 15.932H14.28C14.28 15.932 14.749 15.878 14.989 15.62C15.213 15.38 15.203 14.929 15.203 14.929C15.203 14.929 15.172 12.82 16.138 12.51Z" fill="white"/>
</svg>
